<?xml version="1.0" encoding="utf-8"?>
<!-- Generator: Adobe Illustrator 16.0.3, SVG Export Plug-In . SVG Version: 6.00 Build 0)  -->
<!DOCTYPE svg PUBLIC "-//W3C//DTD SVG 1.1//EN" "http://www.w3.org/Graphics/SVG/1.1/DTD/svg11.dtd">
<svg version="1.1" xmlns="http://www.w3.org/2000/svg" xmlns:xlink="http://www.w3.org/1999/xlink" x="0px" y="0px" width="1700px"
	 height="642.185px" viewBox="0 0 1700 642.185" enable-background="new 0 0 1700 642.185" xml:space="preserve">
<g id="Layer_2">
	<linearGradient id="SVGID_1_" gradientUnits="userSpaceOnUse" x1="850.0005" y1="839.1133" x2="850.0004" y2="-157.4858">
		<stop  offset="0" style="stop-color:#FFFFFF"/>
		<stop  offset="0.1322" style="stop-color:#CCEBF8"/>
		<stop  offset="0.2858" style="stop-color:#98D6F0"/>
		<stop  offset="0.4299" style="stop-color:#6FC6EB"/>
		<stop  offset="0.5602" style="stop-color:#51BBE6"/>
		<stop  offset="0.6721" style="stop-color:#3FB4E4"/>
		<stop  offset="0.7527" style="stop-color:#39B1E3"/>
		<stop  offset="1" style="stop-color:#278FE1"/>
	</linearGradient>
	<rect fill="url(#SVGID_1_)" width="1700" height="642.185"/>
</g>
<g id="Layer_1">
	<g>
		<defs>
			<rect id="SVGID_2_" y="-557.815" width="1700" height="1200"/>
		</defs>
		<clipPath id="SVGID_3_">
			<use xlink:href="#SVGID_2_"  overflow="visible"/>
		</clipPath>
		<g clip-path="url(#SVGID_3_)">
			<g>
				<circle fill="#C2F1F9" cx="88.359" cy="417.276" r="67.779"/>
				<circle fill="#C2F1F9" cx="10.359" cy="347.31" r="67.779"/>
				<circle fill="#C2F1F9" cx="-4.92" cy="488.523" r="93.279"/>
				<circle fill="#C2F1F9" cx="200.969" cy="430.268" r="82.959"/>
				<circle fill="#C2F1F9" cx="322.209" cy="409.157" r="68.46"/>
				<circle fill="#C2F1F9" cx="1004.702" cy="556.983" r="68.46"/>
				<circle fill="#C2F1F9" cx="904.342" cy="528.688" r="68.46"/>
				<circle fill="#C2F1F9" cx="972.802" cy="464.702" r="58.434"/>
				<circle fill="#C2F1F9" cx="1052.236" cy="496.771" r="45.472"/>
				<circle fill="#C2F1F9" cx="800" cy="553.515" r="68.46"/>
				<circle fill="#C2F1F9" cx="1119.422" cy="502.443" r="59.403"/>
				<circle fill="#C2F1F9" cx="1456.598" cy="443.04" r="59.403"/>
				<circle fill="#C2F1F9" cx="1588.738" cy="480.533" r="59.403"/>
				<circle fill="#C2F1F9" cx="1665.738" cy="523.137" r="59.403"/>
				<circle fill="#C2F1F9" cx="1680.738" cy="429.12" r="59.403"/>
				<circle fill="#C2F1F9" cx="1523.334" cy="496.77" r="59.403"/>
				<circle fill="#C2F1F9" cx="1365.945" cy="470.188" r="49.058"/>
				<circle fill="#C2F1F9" cx="1293.72" cy="510.702" r="75.64"/>
				<circle fill="#C2F1F9" cx="1456.598" cy="510.702" r="59.403"/>
				<circle fill="#C2F1F9" cx="417.635" cy="474.728" r="68.46"/>
				<circle fill="#C2F1F9" cx="504.7" cy="426.612" r="48.428"/>
				<circle fill="#C2F1F9" cx="521.477" cy="496.77" r="57.172"/>
			</g>
			<g>
				<circle fill="#B9E3ED" cx="452.2" cy="580.709" r="84.319"/>
				<circle fill="#B9E3ED" cx="196.956" cy="548.806" r="73.443"/>
				<circle fill="#B9E3ED" cx="123.514" cy="496.39" r="73.443"/>
				<circle fill="#B9E3ED" cx="357.148" cy="548.806" r="86.749"/>
				<circle fill="#B9E3ED" cx="270.399" cy="608.138" r="86.749"/>
				<circle fill="#B9E3ED" cx="279.632" cy="485.154" r="52.249"/>
				<circle fill="#B9E3ED" cx="569.786" cy="566.476" r="63.477"/>
				<circle fill="#B9E3ED" cx="1184.597" cy="546.004" r="83.949"/>
				<circle fill="#B9E3ED" cx="1040.699" cy="610.938" r="83.949"/>
				<circle fill="#B9E3ED" cx="1310.546" cy="537.403" r="83.949"/>
				<circle fill="#B9E3ED" cx="1424.541" cy="520.759" r="59.95"/>
				<circle fill="#B9E3ED" cx="1510.037" cy="562.052" r="59.95"/>
				<circle fill="#B9E3ED" cx="1579.034" cy="526.989" r="59.95"/>
				<circle fill="#B9E3ED" cx="684.596" cy="580.709" r="83.949"/>
				<circle fill="#B9E3ED" cx="830.532" cy="621.352" r="83.949"/>
			</g>
			<g>
				<circle fill="#EDF7F9" cx="-19.375" cy="656.51" r="154.4"/>
				<circle fill="#EDF7F9" cx="88.964" cy="556.983" r="99.212"/>
				<circle fill="#EDF7F9" cx="785.538" cy="755.57" r="100.942"/>
				<circle fill="#EDF7F9" cx="307.504" cy="679.256" r="98.992"/>
				<circle fill="#EDF7F9" cx="424.775" cy="679.256" r="76.704"/>
				<circle fill="#EDF7F9" cx="972.802" cy="705.301" r="104.478"/>
				<circle fill="#EDF7F9" cx="897.273" cy="650.788" r="104.783"/>
				<circle fill="#EDF7F9" cx="1256.549" cy="767.223" r="136.358"/>
				<circle fill="#EDF7F9" cx="1350.72" cy="616.488" r="136.358"/>
				<circle fill="#EDF7F9" cx="1518.218" cy="616.488" r="88.813"/>
				<circle fill="#EDF7F9" cx="1178.826" cy="644.812" r="78.685"/>
				<circle fill="#EDF7F9" cx="1555.236" cy="709.55" r="78.685"/>
				<circle fill="#EDF7F9" cx="1611.09" cy="644.812" r="64.103"/>
				<circle fill="#EDF7F9" cx="1429.406" cy="705.301" r="78.685"/>
				<circle fill="#EDF7F9" cx="1633.921" cy="576.09" r="78.686"/>
				<circle fill="#EDF7F9" cx="1048.652" cy="730.085" r="92.85"/>
				<circle fill="#EDF7F9" cx="1079.75" cy="830.51" r="92.85"/>
				<path fill="#EDF7F9" d="M1649,840.011c0,117.202,29.943,63.569-569.25,63.569S-121,994.678-129,897.38
					c-25.055-304.73,579.608-240.87,1226.708-167.813C1696.901,729.567,1649,722.809,1649,840.011z"/>
				<circle fill="#EDF7F9" cx="556.962" cy="755.57" r="127.634"/>
				<circle fill="#EDF7F9" cx="667.843" cy="654.83" r="78.74"/>
				<circle fill="#EDF7F9" cx="760.079" cy="589.113" r="78.74"/>
				<circle fill="#EDF7F9" cx="146.215" cy="685.166" r="104.903"/>
			</g>
		</g>
	</g>
	<g>
		<g>
			<path fill="#FFE1AA" d="M414.217,190.595c-0.694,3.089-0.927,8.649-2.471,10.349c-1.545,1.699-2.676,3.502-1.197,3.65
				c4.055,0.405,0.348,7.471,4.055,7.857s7.105,0.387,7.105,0.387l1.081,6.797h6.874l2.239-1.082c0,0-1.158-11.121-1.081-11.507
				c0.077-0.387,4.325-10.35,3.939-10.813c-0.387-0.463-3.245-8.805-3.245-8.805h-14.287L414.217,190.595z"/>
			<path fill="#726658" d="M410.549,231.645c3.012-6.488,8.341-15.756,15.523-16.104s10.427,2.086,10.542,15.524
				c0.116,13.438-4.981,9.847-4.981,9.847l-21.084-2.78V231.645z"/>
			<path fill="#231F20" d="M411.649,189.301c1.6-3.371,6.97-11.142,19.02-8.592c12.048,2.549,14.364,22.861-1.623,28.809
				c-0.463,4.556,0.051,10.117-3.103,10.117s-5.239,1.791-5.161-4.125c0.077-5.916-0.297-23.082-0.297-23.082
				C418.632,192.196,409.486,193.857,411.649,189.301z"/>
			<path fill="#603913" d="M439.724,199.205h-23.034v-4.111c0,0,19.748-0.029,23.791,0
				C440.556,197.381,439.724,199.205,439.724,199.205z"/>
			<path fill="#58595B" d="M418.252,197.179c0,1.919-1.036,3.476-2.316,3.476h-3.881c-1.28,0-2.317-1.557-2.317-3.476l0,0
				c0-1.92,1.037-3.476,2.317-3.476h3.881C417.216,193.703,418.252,195.259,418.252,197.179L418.252,197.179z"/>
			<path fill="#D1D3D4" d="M417.586,197.248c0,1.657-0.955,3-2.136,3h-3.577c-1.18,0-2.136-1.343-2.136-3l0,0
				c0-1.658,0.956-3.001,2.136-3.001h3.577C416.631,194.247,417.586,195.59,417.586,197.248L417.586,197.248z"/>
		</g>
		<g>
			<g>
				<g>
					<path fill="#414042" d="M923.802,318.752l-107.444-72.041l-118.814-0.213l0.004-2l118.719,0.213l107.703-107.125
						L923.802,318.752z M818.868,245.504l102.768,69.082l-1.167-170.834L818.868,245.504z"/>
				</g>
				<path fill="#FFFFFF" d="M1648.084,320.761c-243.156-37.087-486.31,37.089-729.464,0c0-61.813,0-123.625,0-185.438
					c243.154,37.087,486.308-37.088,729.464,0C1648.084,197.136,1648.084,258.948,1648.084,320.761z"/>
			</g>
			<g>
				
					<rect x="275.881" y="261.569" transform="matrix(0.8659 0.5002 -0.5002 0.8659 196.7001 -97.2635)" fill="#F22A2A" width="7.727" height="113.28"/>
				
					<rect x="642.729" y="272.582" transform="matrix(0.7076 -0.7066 0.7066 0.7076 -14.3173 538.9847)" fill="#F22A2A" width="2.808" height="28.422"/>
				
					<rect x="651.992" y="254.441" transform="matrix(0.9659 -0.2589 0.2589 0.9659 -48.9287 178.5696)" fill="#F22A2A" width="2.81" height="41.159"/>
				<g>
					<path fill="#F22A2A" d="M512.771,268.391c19.244-1.738,134.654-20.454,183.781-28.486
						c-39.175-18.877-83.792-25.921-118.112-28.121c-7.12,1.682-14.535,2.406-22.066,2.061l-74.521-3.43
						c-51.894,44.926-103.673,20.969-118.983-2.449c-76.457-3.452-170.22-8.09-170.22-8.09l-2.341,63.567
						C229.977,264.487,483.482,271.033,512.771,268.391z"/>
					<path fill="#E6E7E8" d="M512.771,268.391c-29.289,2.643-282.795-3.903-322.463-4.948l-0.365,9.888
						c70.035,2.069,280.582,8.92,324.717,5.013c34.182-3.024,131.738-20.32,193.221-32.375c0.044-0.052,0.095-0.099,0.136-0.151
						c-3.751-2.104-7.591-4.046-11.464-5.912C647.426,247.937,532.016,266.652,512.771,268.391z"/>
				</g>
				<path fill="#E6E7E8" d="M481.853,210.414l-14.274-0.657c-29.644,20.344-62.772,22.231-90.674-1.163
					c-4.593-0.204-9.282-0.414-14.035-0.629C378.18,231.383,429.959,255.34,481.853,210.414z"/>
				<ellipse fill="#58595B" cx="112.075" cy="201.836" rx="6.757" ry="46.864"/>
				<ellipse fill="#58595B" cx="112.075" cy="307.77" rx="6.757" ry="46.863"/>
				<rect x="234.944" y="283.979" fill="#F22A2A" width="7.726" height="78.225"/>
				<circle fill="#231F20" cx="236.554" cy="397.291" r="43.566"/>
				<path fill="#414042" d="M145.351,277.326l-43.695-5.27c-8.067-0.973-14.138-7.818-14.138-15.945l0,0
					c0-8.127,6.07-14.973,14.138-15.945l43.695-5.271V277.326z"/>
				<g>
					<path fill="#F22A2A" d="M288.705,400.512c-1.778,0-3.219-1.441-3.219-3.221c0-26.979-21.951-48.93-48.933-48.93
						c-11.912,0-23.39,4.33-32.321,12.193c-1.336,1.176-3.37,1.045-4.543-0.289c-1.176-1.334-1.046-3.369,0.289-4.543
						c10.107-8.901,23.097-13.799,36.575-13.799c30.532,0,55.369,24.838,55.369,55.367
						C291.923,399.07,290.482,400.512,288.705,400.512z"/>
				</g>
				<path fill="#FFFFFF" d="M264.024,397.291c0-15.172-12.3-27.469-27.471-27.469c-15.172,0-27.471,12.297-27.471,27.469
					c0,15.174,12.299,27.473,27.471,27.473C251.725,424.764,264.024,412.465,264.024,397.291z"/>
				<circle fill="#414042" cx="236.554" cy="397.291" r="9.658"/>
				<circle fill="#231F20" cx="662.618" cy="306.437" r="15.83"/>
				<g>
					<path fill="#F22A2A" d="M643.709,306.396c-0.024,0-0.051-0.002-0.075-0.004c-0.645-0.041-1.136-0.596-1.092-1.241
						c0.31-4.884,2.39-9.479,5.851-12.942c3.798-3.797,8.852-5.891,14.226-5.891c5.375,0,10.427,2.094,14.227,5.891
						c0.457,0.458,0.457,1.199,0,1.656c-0.457,0.455-1.198,0.455-1.653,0c-3.358-3.359-7.825-5.209-12.573-5.209
						c-4.749,0-9.214,1.85-12.57,5.209c-3.063,3.059-4.897,7.119-5.175,11.436C644.836,305.919,644.32,306.396,643.709,306.396z"/>
				</g>
				<circle fill="#FFFFFF" cx="662.618" cy="306.437" r="9.981"/>
				<circle fill="#414042" cx="662.618" cy="306.437" r="3.509"/>
				<path fill="#3C2415" d="M188.581,310.313h-46.275c-4.658,0-8.556-3.541-9.002-8.18l-8.36-87.063
					c-0.925-9.637,6.888-17.867,16.561-17.441l51.146,2.246L188.581,310.313z"/>
				<path fill="#939598" d="M514.66,278.344c-44.135,3.906-254.682-2.944-324.717-5.014l-1.362,36.982l254.521,2.217
					c52.433,0.457,104.622-7.137,154.751-22.516l81.35-24.957c11.479-3.521,21.317-10.283,28.679-19.089
					C646.398,258.022,548.842,275.318,514.66,278.344z"/>
				<g>
					
						<rect x="188.895" y="211.646" transform="matrix(0.1742 0.9847 -0.9847 0.1742 424.1584 -70.2661)" fill="#939598" width="130.154" height="12.205"/>
				</g>
				<g>
					<polygon fill="#939598" points="322.505,286.808 299.4,154.719 311.423,152.613 334.527,284.701 					"/>
				</g>
				<path fill="#F22A2A" d="M695.019,134.715c-3.963-3.455-8.524-5.786-13.292-7.017c-14.295-3.691-29.206,3.505-36.239,16.486
					l-15.088,27.851c-2.097,3.871-4.489,7.517-7.133,10.924c21.35-10,53.518-25.113,81.306-38.348
					C701.695,141.076,698.508,137.761,695.019,134.715z"/>
				<g>
					<path fill="#E6E7E8" d="M704.572,144.611c-27.788,13.234-59.956,28.348-81.306,38.348
						c-11.252,14.508-27.123,24.643-44.826,28.824c15.414,0.988,32.922,2.973,51.067,6.539l90.906-41.739
						C717.582,164.924,712.198,153.982,704.572,144.611z"/>
					<path fill="#939598" d="M629.508,218.322c26.255,5.16,53.857,13.66,78.509,27.494c8.02-9.655,13.058-21.757,13.891-34.861
						l0.646-10.223c0.519-8.211-0.244-16.339-2.139-24.149L629.508,218.322z"/>
				</g>
				<g>
					<path fill="#BE1E2D" d="M369.845,161.326c0.013-0.027,0.035-0.052,0.042-0.08c1.337-6.556-71.439-20.657-119.135-20.657
						c-36.652,0-51.608,6.536-48.146,12.032C232.059,151.511,290.931,149.199,369.845,161.326z"/>
					<path fill="#F22A2A" d="M202.606,152.621c2.965,4.705,19.428,8.648,47.368,7.072c47.275-2.668,118.086,5.241,119.87,1.633
						C290.931,149.199,232.059,151.511,202.606,152.621z"/>
				</g>
				<g>
					<path fill="#BE1E2D" d="M385.497,293.111c-4.604-6.855-73.239-19.779-118.898-19.779c-36.544,0-51.521,6.5-48.176,11.986
						C245.479,284.359,304.639,281.162,385.497,293.111z"/>
					<path fill="#F22A2A" d="M218.423,285.318c2.882,4.726,19.361,8.701,47.399,7.12c47.619-2.687,119.133,5.358,119.911,1.554
						c0.056-0.281-0.032-0.576-0.236-0.881C304.639,281.162,245.479,284.359,218.423,285.318z"/>
				</g>
				<g>
					<path fill="#BE1E2D" d="M694.731,250.303c-1.693-4.277-36.263-9.832-58.621-7.783c-17.556,1.609-24.403,6.457-22.543,9.871
						C631.692,250.486,659.455,248.375,694.731,250.303z"/>
					<path fill="#F22A2A" d="M613.567,252.391c1.617,2.967,9.812,4.85,23.306,2.572c22.811-3.85,57.782-1.786,57.93-4.293
						c0.01-0.121-0.024-0.243-0.071-0.367C659.455,248.375,631.692,250.486,613.567,252.391z"/>
				</g>
			</g>
		</g>
	</g>
	<g>
		<path fill="#D84F19" d="M965.301,223.317l1.537-6.899c1.333-6.035,2.637-13.118,3.912-21.247c0.116-0.776,0.512-1.473,1.186-2.088
			s1.458-0.923,2.352-0.923c0.776,0,1.406,0.234,1.89,0.703s0.726,1.077,0.726,1.823c0,0.572-0.374,2.916-1.121,7.031l-1.736,9.361
			c-0.41,2.124-1.223,5.808-2.438,11.052c3.457-0.044,8.042-0.901,13.755-2.571c0.366-0.088,0.695-0.131,0.988-0.131
			c0.894,0,1.546,0.271,1.956,0.813s0.615,1.106,0.615,1.691c0,1.334-0.634,2.348-1.9,3.044c-1.268,0.695-3.794,1.384-7.581,2.065
			c-3.786,0.681-6.969,1.021-9.547,1.021c-3.12,0-4.68-1.201-4.68-3.604C965.213,224.108,965.241,223.728,965.301,223.317z"/>
		<path fill="#D84F19" d="M1005.576,225.272c-2.886,1.318-5.047,1.979-6.482,1.979c-6.035,0-9.053-2.776-9.053-8.328
			c0-4.614,1.611-8.404,4.834-11.371c3.223-2.966,6.79-4.449,10.701-4.449c1.436,0,3.036,0.421,4.801,1.264
			c1.766,0.842,2.648,1.798,2.648,2.867c0,0.659-0.235,1.245-0.703,1.758c-0.499,1.172-0.92,2.871-1.264,5.098
			c-0.345,2.227-0.517,3.896-0.517,5.01c0,0.645,0.044,1.099,0.132,1.362l0.659,2.153c0.337,1.143,0.505,1.846,0.505,2.109
			c0,0.557-0.329,1.157-0.988,1.802s-1.473,0.967-2.439,0.967C1007.78,227.492,1006.836,226.752,1005.576,225.272z
			 M1006.346,208.771c-0.439-0.278-0.857-0.417-1.253-0.417c-2.183,0-4.204,0.919-6.064,2.757c-1.86,1.839-2.79,4.187-2.79,7.042
			c0,2.594,1.135,3.89,3.405,3.89c1.846,0,3.566-0.601,5.163-1.802C1004.968,214.704,1005.48,210.881,1006.346,208.771z"/>
		<path fill="#D84F19" d="M1034.998,218.835c0-3.354,1.486-6.885,4.46-10.591s6.057-5.56,9.251-5.56c1.625,0,3.416,0.443,5.372,1.33
			c1.955,0.886,2.933,1.908,2.933,3.064c0,0.777-0.325,1.491-0.978,2.143c-0.651,0.652-1.417,0.979-2.296,0.979
			c-0.659,0-1.362-0.33-2.109-0.989c-0.776-0.688-2.051-1.032-3.823-1.032c-1.172,0-2.633,1.208-4.384,3.625
			c-1.75,2.417-2.625,4.432-2.625,6.043c0,1.201,0.446,2.179,1.34,2.933c0.894,0.755,2.153,1.132,3.779,1.132
			c0.996,0,2.256-0.381,3.779-1.143c1.582-0.747,2.556-1.121,2.922-1.121c0.718,0,1.308,0.246,1.77,0.736
			c0.461,0.491,0.691,1.059,0.691,1.703c0,1.289-1.296,2.501-3.889,3.637c-2.593,1.135-4.637,1.703-6.131,1.703
			c-3.031,0-5.467-0.791-7.306-2.373C1035.917,223.472,1034.998,221.398,1034.998,218.835z"/>
		<path fill="#D84F19" d="M1073.208,225.272c-2.886,1.318-5.047,1.979-6.481,1.979c-6.036,0-9.053-2.776-9.053-8.328
			c0-4.614,1.61-8.404,4.834-11.371c3.222-2.966,6.789-4.449,10.7-4.449c1.436,0,3.036,0.421,4.801,1.264
			c1.766,0.842,2.647,1.798,2.647,2.867c0,0.659-0.234,1.245-0.703,1.758c-0.498,1.172-0.919,2.871-1.263,5.098
			c-0.345,2.227-0.517,3.896-0.517,5.01c0,0.645,0.044,1.099,0.132,1.362l0.659,2.153c0.337,1.143,0.506,1.846,0.506,2.109
			c0,0.557-0.33,1.157-0.989,1.802s-1.472,0.967-2.438,0.967C1075.412,227.492,1074.468,226.752,1073.208,225.272z
			 M1073.977,208.771c-0.439-0.278-0.856-0.417-1.252-0.417c-2.183,0-4.204,0.919-6.064,2.757c-1.86,1.839-2.791,4.187-2.791,7.042
			c0,2.594,1.136,3.89,3.406,3.89c1.846,0,3.566-0.601,5.164-1.802C1072.6,214.704,1073.112,210.881,1073.977,208.771z"/>
		<path fill="#D84F19" d="M1091.248,222.812c-0.439,2.784-1.67,4.176-3.691,4.176c-0.865,0-1.546-0.271-2.044-0.813
			s-0.674-1.26-0.527-2.153l4.834-30.432c0.132-0.85,0.546-1.535,1.241-2.055c0.696-0.521,1.461-0.78,2.297-0.78
			c0.879,0,1.549,0.268,2.01,0.802c0.462,0.535,0.634,1.213,0.517,2.033L1091.248,222.812z"/>
		<path fill="#D84F19" d="M1100.059,226.724c-0.806,0-1.449-0.231-1.934-0.692c-0.482-0.462-0.725-1.051-0.725-1.769l0.615-4.482
			c0.396-3.018,0.923-5.984,1.582-8.899c0.513-2.153,0.842-3.802,0.988-4.944c0.117-0.805,0.517-1.497,1.198-2.076
			c0.681-0.578,1.453-0.867,2.317-0.867c0.762,0,1.381,0.227,1.857,0.681c0.476,0.454,0.714,1.048,0.714,1.78
			c0,0.586-0.322,2.277-0.967,5.075s-1.132,5.501-1.461,8.108c-0.33,2.607-0.579,4.35-0.747,5.229
			c-0.169,0.879-0.579,1.575-1.23,2.088C1101.615,226.467,1100.879,226.724,1100.059,226.724z M1102.344,196.862
			c0-1.011,0.418-1.882,1.253-2.615c0.835-0.731,1.75-1.098,2.747-1.098c0.834,0,1.545,0.267,2.131,0.802
			c0.586,0.534,0.879,1.183,0.879,1.944c0,0.981-0.414,1.85-1.241,2.604c-0.828,0.755-1.762,1.132-2.802,1.132
			c-0.85,0-1.557-0.271-2.12-0.813C1102.626,198.276,1102.344,197.624,1102.344,196.862z"/>
		<path fill="#D84F19" d="M1122.822,203.476c1.991-0.176,3.412-0.264,4.262-0.264c2.739,0,3.963,0.938,3.67,2.813
			c-0.308,1.934-1.912,2.857-4.813,2.77c-0.922-0.029-2.336,0.036-4.24,0.197c-0.293,1.553-0.615,3.53-0.967,5.933
			c-0.498,3.457-0.784,5.427-0.857,5.911c-0.425,2.68-0.93,4.805-1.516,6.371c-0.586,1.567-1.678,2.352-3.273,2.352
			c-0.821,0-1.491-0.264-2.011-0.791c-0.521-0.527-0.722-1.194-0.604-2c0.029-0.19,0.073-0.373,0.132-0.549
			c0.688-2.095,1.179-4.064,1.472-5.91l1.736-10.986c-0.264,0.015-0.755,0.073-1.473,0.176c-0.57,0.073-1.003,0.109-1.296,0.109
			c-0.894,0-1.593-0.26-2.099-0.78c-0.505-0.52-0.685-1.22-0.538-2.099c0.205-1.361,1.062-2.255,2.571-2.68
			c0.673-0.19,1.977-0.315,3.91-0.374c0.059-0.264,0.286-1.091,0.682-2.483c0.923-3.266,2.189-5.697,3.801-7.295
			c2.021-1.991,4.791-2.988,8.307-2.988c2.68,0,3.867,0.96,3.559,2.879c-0.307,1.904-1.706,2.856-4.196,2.856
			c-1.772,0-3.157,0.623-4.153,1.868c-0.746,0.922-1.377,2.365-1.889,4.328L1122.822,203.476z"/>
		<path fill="#D84F19" d="M1135.545,226.724c-0.807,0-1.451-0.231-1.934-0.692c-0.484-0.462-0.726-1.051-0.726-1.769l0.615-4.482
			c0.396-3.018,0.923-5.984,1.582-8.899c0.513-2.153,0.842-3.802,0.989-4.944c0.116-0.805,0.516-1.497,1.197-2.076
			c0.681-0.578,1.453-0.867,2.318-0.867c0.761,0,1.38,0.227,1.856,0.681c0.476,0.454,0.714,1.048,0.714,1.78
			c0,0.586-0.322,2.277-0.967,5.075s-1.132,5.501-1.461,8.108c-0.33,2.607-0.579,4.35-0.747,5.229
			c-0.169,0.879-0.579,1.575-1.23,2.088C1137.101,226.467,1136.364,226.724,1135.545,226.724z M1137.83,196.862
			c0-1.011,0.417-1.882,1.252-2.615c0.835-0.731,1.75-1.098,2.746-1.098c0.836,0,1.546,0.267,2.132,0.802
			c0.586,0.534,0.879,1.183,0.879,1.944c0,0.981-0.414,1.85-1.241,2.604c-0.828,0.755-1.762,1.132-2.802,1.132
			c-0.85,0-1.557-0.271-2.12-0.813C1138.111,198.276,1137.83,197.624,1137.83,196.862z"/>
		<path fill="#D84F19" d="M1143.543,218.835c0-3.354,1.486-6.885,4.46-10.591s6.057-5.56,9.251-5.56c1.625,0,3.416,0.443,5.372,1.33
			c1.955,0.886,2.933,1.908,2.933,3.064c0,0.777-0.325,1.491-0.978,2.143c-0.651,0.652-1.417,0.979-2.296,0.979
			c-0.659,0-1.362-0.33-2.109-0.989c-0.776-0.688-2.051-1.032-3.823-1.032c-1.172,0-2.633,1.208-4.384,3.625
			c-1.75,2.417-2.625,4.432-2.625,6.043c0,1.201,0.446,2.179,1.34,2.933c0.894,0.755,2.153,1.132,3.779,1.132
			c0.996,0,2.256-0.381,3.779-1.143c1.582-0.747,2.556-1.121,2.922-1.121c0.718,0,1.308,0.246,1.77,0.736
			c0.461,0.491,0.691,1.059,0.691,1.703c0,1.289-1.296,2.501-3.889,3.637c-2.593,1.135-4.637,1.703-6.131,1.703
			c-3.031,0-5.467-0.791-7.306-2.373C1144.462,223.472,1143.543,221.398,1143.543,218.835z"/>
		<path fill="#D84F19" d="M1181.753,225.272c-2.886,1.318-5.047,1.979-6.481,1.979c-6.036,0-9.053-2.776-9.053-8.328
			c0-4.614,1.61-8.404,4.834-11.371c3.222-2.966,6.789-4.449,10.7-4.449c1.436,0,3.036,0.421,4.801,1.264
			c1.766,0.842,2.647,1.798,2.647,2.867c0,0.659-0.234,1.245-0.703,1.758c-0.498,1.172-0.919,2.871-1.263,5.098
			c-0.345,2.227-0.517,3.896-0.517,5.01c0,0.645,0.044,1.099,0.132,1.362l0.659,2.153c0.337,1.143,0.506,1.846,0.506,2.109
			c0,0.557-0.33,1.157-0.989,1.802s-1.472,0.967-2.438,0.967C1183.957,227.492,1183.013,226.752,1181.753,225.272z
			 M1182.521,208.771c-0.439-0.278-0.856-0.417-1.252-0.417c-2.183,0-4.204,0.919-6.064,2.757c-1.86,1.839-2.791,4.187-2.791,7.042
			c0,2.594,1.136,3.89,3.406,3.89c1.846,0,3.566-0.601,5.164-1.802C1181.145,214.704,1181.657,210.881,1182.521,208.771z"/>
		<path fill="#D84F19" d="M1191.662,218.835c0-3.354,1.487-6.885,4.461-10.591s6.057-5.56,9.25-5.56c1.627,0,3.417,0.443,5.373,1.33
			c1.955,0.886,2.934,1.908,2.934,3.064c0,0.777-0.326,1.491-0.979,2.143c-0.651,0.652-1.417,0.979-2.296,0.979
			c-0.659,0-1.362-0.33-2.109-0.989c-0.776-0.688-2.051-1.032-3.823-1.032c-1.172,0-2.633,1.208-4.384,3.625
			c-1.75,2.417-2.626,4.432-2.626,6.043c0,1.201,0.447,2.179,1.341,2.933c0.894,0.755,2.153,1.132,3.779,1.132
			c0.996,0,2.256-0.381,3.779-1.143c1.582-0.747,2.556-1.121,2.923-1.121c0.717,0,1.307,0.246,1.769,0.736
			c0.461,0.491,0.692,1.059,0.692,1.703c0,1.289-1.297,2.501-3.89,3.637c-2.593,1.135-4.636,1.703-6.13,1.703
			c-3.033,0-5.468-0.791-7.307-2.373C1192.582,223.472,1191.662,221.398,1191.662,218.835z"/>
		<path fill="#D84F19" d="M1219.393,226.724c-0.807,0-1.451-0.231-1.934-0.692c-0.484-0.462-0.726-1.051-0.726-1.769l0.615-4.482
			c0.396-3.018,0.923-5.984,1.582-8.899c0.513-2.153,0.842-3.802,0.989-4.944c0.116-0.805,0.516-1.497,1.197-2.076
			c0.681-0.578,1.453-0.867,2.318-0.867c0.761,0,1.38,0.227,1.856,0.681c0.476,0.454,0.714,1.048,0.714,1.78
			c0,0.586-0.322,2.277-0.967,5.075s-1.132,5.501-1.461,8.108c-0.33,2.607-0.579,4.35-0.747,5.229
			c-0.169,0.879-0.579,1.575-1.23,2.088C1220.948,226.467,1220.212,226.724,1219.393,226.724z M1221.678,196.862
			c0-1.011,0.417-1.882,1.252-2.615c0.835-0.731,1.75-1.098,2.746-1.098c0.836,0,1.546,0.267,2.132,0.802
			c0.586,0.534,0.879,1.183,0.879,1.944c0,0.981-0.414,1.85-1.241,2.604c-0.828,0.755-1.762,1.132-2.802,1.132
			c-0.85,0-1.557-0.271-2.12-0.813C1221.959,198.276,1221.678,197.624,1221.678,196.862z"/>
		<path fill="#D84F19" d="M1228.006,218.308c0-3.662,1.329-7.082,3.987-10.262c2.659-3.178,6.075-4.768,10.251-4.768
			c2.401,0,4.288,0.816,5.657,2.45c1.37,1.633,2.055,3.79,2.055,6.471c0,3.853-1.256,7.339-3.769,10.459
			c-2.512,3.12-5.644,4.681-9.393,4.681c-2.608,0-4.725-0.854-6.351-2.561C1228.818,223.072,1228.006,220.915,1228.006,218.308z
			 M1234.158,217.429c0,1.245,0.304,2.241,0.911,2.988c0.608,0.747,1.483,1.121,2.626,1.121c1.904,0,3.42-0.803,4.549-2.406
			c1.127-1.604,1.691-3.666,1.691-6.186c0-2.578-0.988-3.867-2.967-3.867c-1.934,0-3.552,0.934-4.855,2.802
			C1234.81,213.748,1234.158,215.598,1234.158,217.429z M1240.508,199.938c-0.688,0-1.274-0.212-1.758-0.637
			s-0.725-0.924-0.725-1.494c0-0.732,0.465-1.473,1.395-2.22c0.931-0.747,2.311-1.956,4.143-3.626
			c1.83-1.67,3.368-2.504,4.613-2.504c0.718,0,1.304,0.219,1.758,0.658s0.682,0.945,0.682,1.517c0,0.864-0.483,1.626-1.45,2.285
			c-0.835,0.469-1.948,1.355-3.34,2.659c-1.143,1.069-2.117,1.896-2.923,2.482S1241.299,199.938,1240.508,199.938z"/>
		<path fill="#D84F19" d="M1260.854,205.739c2.476-2.153,4.893-3.23,7.252-3.23c3.691,0,5.537,2.125,5.537,6.373
			c0,1.157-0.125,2.512-0.374,4.064l-0.264,1.582c-0.366,2.197-0.55,4.146-0.55,5.845c0,1.992-0.051,3.395-0.153,4.208
			c-0.103,0.813-0.479,1.523-1.132,2.131c-0.651,0.608-1.432,0.912-2.34,0.912c-1.743,0-2.615-0.843-2.615-2.527
			c0-3.705,0.11-6.427,0.33-8.162c0.22-1.736,0.586-3.666,1.099-5.79c0.205-0.82,0.308-1.398,0.308-1.735
			c0-0.732-0.249-1.1-0.747-1.1c-1.392,0-2.871,0.824-4.438,2.473c-1.567,1.647-2.75,3.332-3.549,5.054
			c-0.798,1.721-1.285,3.907-1.461,6.559c-0.059,1.274-0.176,2.157-0.352,2.647c-0.176,0.491-0.561,0.96-1.153,1.406
			c-0.594,0.447-1.308,0.67-2.143,0.67c-0.762,0-1.388-0.219-1.879-0.658c-0.49-0.439-0.735-1.004-0.735-1.692l0.176-2.373
			c0.116-1.611,0.585-4.175,1.406-7.69c0.791-3.252,1.244-5.5,1.361-6.746c0.117-1.376,0.238-2.431,0.363-3.164
			c0.124-0.731,0.52-1.373,1.187-1.922c0.666-0.55,1.446-0.824,2.34-0.824c1.904,0,2.747,1.143,2.526,3.428V205.739z"/>
		<path fill="#D84F19" d="M1309.216,225.272c-2.886,1.318-5.047,1.979-6.481,1.979c-6.036,0-9.053-2.776-9.053-8.328
			c0-4.614,1.61-8.404,4.834-11.371c3.222-2.966,6.789-4.449,10.7-4.449c1.436,0,3.036,0.421,4.801,1.264
			c1.766,0.842,2.647,1.798,2.647,2.867c0,0.659-0.234,1.245-0.703,1.758c-0.498,1.172-0.919,2.871-1.263,5.098
			c-0.345,2.227-0.517,3.896-0.517,5.01c0,0.645,0.044,1.099,0.132,1.362l0.659,2.153c0.337,1.143,0.506,1.846,0.506,2.109
			c0,0.557-0.33,1.157-0.989,1.802s-1.472,0.967-2.438,0.967C1311.42,227.492,1310.476,226.752,1309.216,225.272z M1309.984,208.771
			c-0.439-0.278-0.856-0.417-1.252-0.417c-2.183,0-4.204,0.919-6.064,2.757c-1.86,1.839-2.791,4.187-2.791,7.042
			c0,2.594,1.136,3.89,3.406,3.89c1.846,0,3.566-0.601,5.164-1.802C1308.607,214.704,1309.12,210.881,1309.984,208.771z"/>
		<path fill="#D84F19" d="M1354.678,208.134c-0.601-0.088-1.201-0.131-1.801-0.131c-3.663,0-5.494,0.505-5.494,1.516
			c0,0.586,0.945,1.326,2.835,2.219c3.135,1.582,5.219,2.897,6.251,3.944c1.033,1.048,1.549,2.274,1.549,3.681
			c0,2.168-1.051,4.039-3.152,5.614c-2.103,1.574-4.955,2.362-8.559,2.362c-2.08,0-3.926-0.352-5.537-1.055
			s-2.417-1.663-2.417-2.879c0-1.846,1.003-2.769,3.011-2.769c0.673,0,1.604,0.213,2.79,0.638c1.304,0.425,2.263,0.637,2.878,0.637
			c3.164,0,4.746-0.651,4.746-1.955c0-0.703-0.894-1.479-2.68-2.33c-3.063-1.435-5.109-2.621-6.142-3.559
			c-1.033-0.938-1.55-2.154-1.55-3.648c0-2.167,0.938-4.013,2.813-5.537c1.875-1.522,5.662-2.285,11.36-2.285
			c2.842,0,4.263,0.887,4.263,2.659c0,0.923-0.234,1.941-0.703,3.054c-0.469,1.114-1.172,1.67-2.109,1.67
			C1355.55,209.979,1354.766,209.364,1354.678,208.134z"/>
		<path fill="#D84F19" d="M1382.518,213.342l-1.494,10.239c-0.074,0.527-0.133,0.988-0.176,1.385
			c-0.118,0.806-0.517,1.479-1.198,2.021c-0.681,0.541-1.446,0.813-2.296,0.813c-1.23,0-2.043-0.557-2.439-1.67
			c-1.948,0.688-3.926,1.033-5.932,1.033c-1.846,0-3.337-0.323-4.472-0.967c-1.136-0.645-1.875-1.392-2.22-2.242
			c-0.344-0.849-0.516-2.028-0.516-3.537c0-4.087,0.377-7.738,1.131-10.953c0.755-3.216,1.443-5.164,2.065-5.845
			c0.623-0.682,1.462-1.022,2.517-1.022c0.791,0,1.435,0.224,1.934,0.671c0.497,0.446,0.746,1.021,0.746,1.725
			c0,0.527-0.278,1.692-0.834,3.493c-1.026,3.282-1.539,6.819-1.539,10.613c0,0.659,0.029,1.245,0.088,1.758
			c0.557,0.337,1.224,0.506,2,0.506c1.685,0,3.494-0.228,5.428-0.682l1.647-10.02c0.396-2.373,0.758-4.079,1.088-5.119
			c0.329-1.04,0.776-1.77,1.34-2.187c0.564-0.418,1.278-0.626,2.143-0.626c0.791,0,1.432,0.219,1.923,0.658
			c0.49,0.439,0.736,1.004,0.736,1.692c0,0.249-0.279,1.735-0.836,4.46l-0.834,3.846V213.342z"/>
		<path fill="#D84F19" d="M1425.121,210.2c-0.117,0.834-0.472,1.607-1.065,2.317c-0.593,0.711-1.438,1.065-2.538,1.065
			c-1.553,0-2.328-0.703-2.328-2.109c0-0.233,0.021-0.49,0.065-0.769l0.198-2.22c-3.355,0.514-5.984,2.213-7.889,5.098
			l-1.714,11.009c-0.132,0.82-0.521,1.517-1.165,2.087c-0.645,0.572-1.421,0.857-2.328,0.857c-0.821,0-1.443-0.274-1.868-0.824
			c-0.425-0.549-0.571-1.256-0.439-2.12l2.263-14.392l0.55-3.143c0.161-1.025,0.355-1.758,0.582-2.197
			c0.228-0.439,0.594-0.813,1.099-1.121c0.506-0.307,1.095-0.461,1.77-0.461c1.64,0,2.482,0.835,2.526,2.505
			c2.9-1.948,5.925-2.923,9.075-2.923c2.401,0,3.604,1.326,3.604,3.978c0,0.571-0.06,1.201-0.176,1.89L1425.121,210.2z"/>
		<path fill="#D84F19" d="M1431.318,219.429c1.259,1.523,3.134,2.285,5.625,2.285c1.934,0,3.654-0.403,5.163-1.209
			c1.348-0.718,2.388-1.076,3.12-1.076c1.289,0,1.934,0.557,1.934,1.67c0,1.713-1.157,3.131-3.472,4.251
			c-2.314,1.121-4.849,1.681-7.603,1.681c-3.384,0-6.031-0.758-7.943-2.273c-1.911-1.517-2.867-3.556-2.867-6.119
			c0-3.589,1.278-7.076,3.834-10.459c2.557-3.385,5.943-5.076,10.162-5.076c2.77,0,4.926,0.458,6.472,1.373
			c1.545,0.916,2.317,2.216,2.317,3.9c0,1.597-0.611,2.94-1.834,4.032c-1.224,1.091-3.557,2.333-6.998,3.724L1431.318,219.429z
			 M1431.713,213.847l5.318-2.109c1.934-0.834,3.64-1.677,5.119-2.526c-0.864-0.542-2.088-0.813-3.67-0.813
			C1435.771,208.397,1433.516,210.215,1431.713,213.847z"/>
		<path fill="#D84F19" d="M1466.277,208.134c-0.602-0.088-1.202-0.131-1.803-0.131c-3.662,0-5.492,0.505-5.492,1.516
			c0,0.586,0.944,1.326,2.834,2.219c3.135,1.582,5.219,2.897,6.251,3.944c1.033,1.048,1.55,2.274,1.55,3.681
			c0,2.168-1.052,4.039-3.153,5.614c-2.103,1.574-4.955,2.362-8.559,2.362c-2.08,0-3.926-0.352-5.537-1.055
			s-2.417-1.663-2.417-2.879c0-1.846,1.003-2.769,3.01-2.769c0.674,0,1.604,0.213,2.791,0.638c1.304,0.425,2.264,0.637,2.879,0.637
			c3.164,0,4.746-0.651,4.746-1.955c0-0.703-0.895-1.479-2.682-2.33c-3.062-1.435-5.108-2.621-6.141-3.559
			c-1.033-0.938-1.549-2.154-1.549-3.648c0-2.167,0.937-4.013,2.813-5.537c1.874-1.522,5.661-2.285,11.359-2.285
			c2.842,0,4.263,0.887,4.263,2.659c0,0.923-0.234,1.941-0.703,3.054c-0.469,1.114-1.172,1.67-2.109,1.67
			C1467.148,209.979,1466.365,209.364,1466.277,208.134z"/>
		<path fill="#D84F19" d="M1478.758,226.899l-1.406,8.942c-0.132,0.864-0.527,1.578-1.187,2.143
			c-0.659,0.563-1.429,0.846-2.308,0.846c-0.806,0-1.442-0.23-1.911-0.692c-0.469-0.461-0.703-1.043-0.703-1.746
			c0-0.411,0.462-3.318,1.384-8.724c1.377-8.408,2.242-15.073,2.594-19.995c0.116-1.846,0.589-3.273,1.417-4.285
			c0.827-1.01,1.761-1.516,2.802-1.516c0.819,0,1.464,0.274,1.934,0.824c0.468,0.549,0.644,1.219,0.527,2.01l-0.088,0.221
			c2.138-1.069,4.196-1.604,6.174-1.604c4.995,0,7.492,2.85,7.492,8.548c0,5.039-1.292,8.877-3.878,11.514
			c-2.585,2.637-5.563,3.955-8.932,3.955C1481.263,227.339,1479.959,227.191,1478.758,226.899z M1480.999,211.782
			c-0.264,2.314-0.667,5.324-1.208,9.03c1.23,0.425,2.504,0.638,3.822,0.638c2.036,0,3.513-0.894,4.428-2.682
			c0.916-1.786,1.373-3.822,1.373-6.107c0-2.33-0.776-3.494-2.328-3.494C1485.225,209.167,1483.196,210.039,1480.999,211.782z"/>
		<path fill="#D84F19" d="M1518.176,213.342l-1.494,10.239c-0.073,0.527-0.131,0.988-0.176,1.385
			c-0.117,0.806-0.516,1.479-1.197,2.021c-0.681,0.541-1.446,0.813-2.296,0.813c-1.23,0-2.044-0.557-2.438-1.67
			c-1.949,0.688-3.927,1.033-5.934,1.033c-1.846,0-3.336-0.323-4.471-0.967c-1.136-0.645-1.875-1.392-2.22-2.242
			c-0.344-0.849-0.517-2.028-0.517-3.537c0-4.087,0.378-7.738,1.132-10.953c0.755-3.216,1.443-5.164,2.065-5.845
			c0.623-0.682,1.461-1.022,2.516-1.022c0.791,0,1.436,0.224,1.934,0.671c0.498,0.446,0.748,1.021,0.748,1.725
			c0,0.527-0.279,1.692-0.836,3.493c-1.025,3.282-1.537,6.819-1.537,10.613c0,0.659,0.028,1.245,0.088,1.758
			c0.556,0.337,1.223,0.506,1.999,0.506c1.685,0,3.493-0.228,5.427-0.682l1.648-10.02c0.396-2.373,0.758-4.079,1.088-5.119
			c0.329-1.04,0.776-1.77,1.34-2.187c0.564-0.418,1.278-0.626,2.143-0.626c0.791,0,1.432,0.219,1.923,0.658
			c0.49,0.439,0.735,1.004,0.735,1.692c0,0.249-0.278,1.735-0.834,4.46l-0.836,3.846V213.342z"/>
		<path fill="#D84F19" d="M1525.846,219.429c1.259,1.523,3.134,2.285,5.625,2.285c1.934,0,3.654-0.403,5.163-1.209
			c1.348-0.718,2.388-1.076,3.12-1.076c1.289,0,1.934,0.557,1.934,1.67c0,1.713-1.157,3.131-3.472,4.251
			c-2.314,1.121-4.849,1.681-7.603,1.681c-3.384,0-6.031-0.758-7.943-2.273c-1.911-1.517-2.867-3.556-2.867-6.119
			c0-3.589,1.278-7.076,3.834-10.459c2.557-3.385,5.943-5.076,10.162-5.076c2.77,0,4.926,0.458,6.472,1.373
			c1.545,0.916,2.317,2.216,2.317,3.9c0,1.597-0.611,2.94-1.834,4.032c-1.224,1.091-3.557,2.333-6.998,3.724L1525.846,219.429z
			 M1526.24,213.847l5.318-2.109c1.934-0.834,3.64-1.677,5.119-2.526c-0.864-0.542-2.088-0.813-3.67-0.813
			C1530.298,208.397,1528.043,210.215,1526.24,213.847z"/>
		<path fill="#D84F19" d="M1560.803,208.134c-0.601-0.088-1.201-0.131-1.801-0.131c-3.663,0-5.494,0.505-5.494,1.516
			c0,0.586,0.945,1.326,2.835,2.219c3.135,1.582,5.219,2.897,6.251,3.944c1.033,1.048,1.549,2.274,1.549,3.681
			c0,2.168-1.051,4.039-3.152,5.614c-2.103,1.574-4.955,2.362-8.559,2.362c-2.08,0-3.926-0.352-5.537-1.055
			s-2.417-1.663-2.417-2.879c0-1.846,1.003-2.769,3.011-2.769c0.673,0,1.604,0.213,2.79,0.638c1.304,0.425,2.263,0.637,2.878,0.637
			c3.164,0,4.746-0.651,4.746-1.955c0-0.703-0.894-1.479-2.68-2.33c-3.063-1.435-5.109-2.621-6.142-3.559
			c-1.033-0.938-1.55-2.154-1.55-3.648c0-2.167,0.938-4.013,2.813-5.537c1.875-1.522,5.662-2.285,11.36-2.285
			c2.842,0,4.263,0.887,4.263,2.659c0,0.923-0.234,1.941-0.703,3.054c-0.469,1.114-1.172,1.67-2.109,1.67
			C1561.675,209.979,1560.891,209.364,1560.803,208.134z"/>
		<path fill="#D84F19" d="M1584.467,208.728h-1.779c-1.04,0-1.904,0.015-2.593,0.044c-0.088,0.249-0.161,0.483-0.22,0.703
			c-0.059,0.234-0.125,0.477-0.197,0.726c-1.129,3.822-1.692,6.687-1.692,8.591c0,1.714,0.344,2.571,1.032,2.571
			s1.414-0.389,2.176-1.165c0.747-0.776,1.442-1.165,2.088-1.165c0.6,0,1.179,0.25,1.735,0.748s0.835,1.157,0.835,1.977
			c0,1.437-0.85,2.667-2.549,3.691c-1.699,1.025-3.398,1.539-5.098,1.539c-4.087,0-6.131-2.476-6.131-7.428
			c0-2.694,0.726-6.232,2.176-10.612c-2.49-0.132-4.021-0.429-4.592-0.89c-0.572-0.462-0.857-1.234-0.857-2.318
			c0-0.894,0.297-1.618,0.89-2.176c0.594-0.556,1.358-0.834,2.296-0.834l3.428,0.307l0.527-4.395
			c0.088-0.761,0.437-1.417,1.044-1.966c0.608-0.55,1.329-0.824,2.165-0.824c1.742,0,2.614,1.216,2.614,3.647
			c0,0.425-0.153,1.561-0.462,3.406c0.425-0.045,0.77-0.088,1.033-0.133c0.82-0.102,1.919-0.043,3.296,0.176
			c1.377,0.221,2.065,1.106,2.065,2.659c0,0.952-0.318,1.71-0.956,2.274C1586.104,208.445,1585.346,208.728,1584.467,208.728z"/>
		<path fill="#D84F19" d="M1602.969,225.272c-2.886,1.318-5.047,1.979-6.482,1.979c-6.035,0-9.053-2.776-9.053-8.328
			c0-4.614,1.611-8.404,4.834-11.371c3.223-2.966,6.79-4.449,10.701-4.449c1.436,0,3.036,0.421,4.801,1.264
			c1.766,0.842,2.648,1.798,2.648,2.867c0,0.659-0.235,1.245-0.703,1.758c-0.499,1.172-0.92,2.871-1.264,5.098
			c-0.345,2.227-0.517,3.896-0.517,5.01c0,0.645,0.044,1.099,0.132,1.362l0.659,2.153c0.337,1.143,0.505,1.846,0.505,2.109
			c0,0.557-0.329,1.157-0.988,1.802s-1.473,0.967-2.439,0.967C1605.173,227.492,1604.229,226.752,1602.969,225.272z
			 M1603.738,208.771c-0.439-0.278-0.857-0.417-1.253-0.417c-2.183,0-4.204,0.919-6.064,2.757c-1.86,1.839-2.79,4.187-2.79,7.042
			c0,2.594,1.135,3.89,3.405,3.89c1.846,0,3.566-0.601,5.163-1.802C1602.36,214.704,1602.873,210.881,1603.738,208.771z"/>
		<path fill="#D84F19" d="M973.914,277.801c-0.703-2.285-2.498-6.966-5.384-14.04c-0.776-1.479-1.165-2.527-1.165-3.143
			c0-0.806,0.381-1.571,1.143-2.296c0.762-0.726,1.59-1.088,2.483-1.088c0.659,0,1.216,0.18,1.67,0.538
			c0.454,0.359,1.245,1.784,2.373,4.273c1.128,2.491,2.241,5.413,3.34,8.768c4.014-6.636,6.544-10.565,7.592-11.788
			c1.047-1.224,2.076-1.835,3.087-1.835c0.762,0,1.406,0.242,1.934,0.725c0.527,0.484,0.791,1.055,0.791,1.715
			c0,0.542-0.194,1.139-0.582,1.79c-0.389,0.652-3.746,5.899-10.074,15.743c-3.004,4.541-5.237,8.262-6.702,11.162
			c-1.025,2.036-1.78,3.289-2.263,3.758c-0.484,0.469-1.173,0.703-2.066,0.703c-0.791,0-1.446-0.242-1.966-0.725
			c-0.521-0.484-0.78-1.055-0.78-1.715C967.344,289.073,969.533,284.891,973.914,277.801z"/>
		<path fill="#D84F19" d="M1005.664,279.272c-2.886,1.318-5.047,1.979-6.482,1.979c-6.035,0-9.053-2.776-9.053-8.328
			c0-4.614,1.611-8.404,4.834-11.371c3.223-2.966,6.79-4.449,10.701-4.449c1.436,0,3.036,0.421,4.801,1.264
			c1.766,0.842,2.648,1.798,2.648,2.867c0,0.659-0.235,1.245-0.703,1.758c-0.499,1.172-0.92,2.871-1.264,5.098
			c-0.345,2.227-0.517,3.896-0.517,5.01c0,0.645,0.044,1.099,0.132,1.362l0.659,2.153c0.337,1.143,0.505,1.846,0.505,2.109
			c0,0.557-0.329,1.157-0.988,1.802s-1.473,0.967-2.439,0.967C1007.868,281.492,1006.924,280.752,1005.664,279.272z
			 M1006.434,262.771c-0.439-0.278-0.857-0.417-1.253-0.417c-2.183,0-4.204,0.919-6.064,2.757c-1.86,1.839-2.79,4.187-2.79,7.042
			c0,2.594,1.135,3.89,3.405,3.89c1.846,0,3.566-0.601,5.163-1.802C1005.056,268.704,1005.568,264.881,1006.434,262.771z"/>
		<path fill="#D84F19" d="M1041.326,273.429c1.259,1.523,3.134,2.285,5.625,2.285c1.934,0,3.654-0.403,5.163-1.209
			c1.348-0.718,2.388-1.076,3.12-1.076c1.289,0,1.934,0.557,1.934,1.67c0,1.713-1.157,3.131-3.472,4.251
			c-2.314,1.121-4.849,1.681-7.603,1.681c-3.384,0-6.031-0.758-7.943-2.273c-1.911-1.517-2.867-3.556-2.867-6.119
			c0-3.589,1.278-7.076,3.834-10.459c2.557-3.385,5.943-5.076,10.162-5.076c2.77,0,4.926,0.458,6.472,1.373
			c1.545,0.916,2.317,2.216,2.317,3.9c0,1.597-0.611,2.94-1.834,4.032c-1.224,1.091-3.557,2.333-6.998,3.724L1041.326,273.429z
			 M1041.721,267.847l5.318-2.109c1.934-0.834,3.64-1.677,5.119-2.526c-0.864-0.542-2.088-0.813-3.67-0.813
			C1045.778,262.397,1043.523,264.215,1041.721,267.847z"/>
		<path fill="#D84F19" d="M1076.283,262.134c-0.601-0.088-1.201-0.131-1.801-0.131c-3.663,0-5.494,0.505-5.494,1.516
			c0,0.586,0.945,1.326,2.835,2.219c3.135,1.582,5.219,2.897,6.251,3.944c1.033,1.048,1.549,2.274,1.549,3.681
			c0,2.168-1.051,4.039-3.152,5.614c-2.103,1.574-4.955,2.362-8.559,2.362c-2.08,0-3.926-0.352-5.537-1.055
			s-2.417-1.663-2.417-2.879c0-1.846,1.003-2.769,3.011-2.769c0.673,0,1.604,0.213,2.79,0.638c1.304,0.425,2.263,0.637,2.878,0.637
			c3.164,0,4.746-0.651,4.746-1.955c0-0.703-0.894-1.479-2.68-2.33c-3.063-1.435-5.109-2.621-6.142-3.559
			c-1.033-0.938-1.55-2.154-1.55-3.648c0-2.167,0.938-4.013,2.813-5.537c1.875-1.522,5.662-2.285,11.36-2.285
			c2.842,0,4.263,0.887,4.263,2.659c0,0.923-0.234,1.941-0.703,3.054c-0.469,1.114-1.172,1.67-2.109,1.67
			C1077.155,263.979,1076.371,263.364,1076.283,262.134z"/>
		<path fill="#D84F19" d="M1099.949,262.728h-1.78c-1.04,0-1.904,0.015-2.593,0.044c-0.088,0.249-0.161,0.483-0.22,0.703
			c-0.059,0.234-0.125,0.477-0.198,0.726c-1.128,3.822-1.691,6.687-1.691,8.591c0,1.714,0.344,2.571,1.033,2.571
			c0.688,0,1.413-0.389,2.175-1.165c0.747-0.776,1.442-1.165,2.087-1.165c0.601,0,1.18,0.25,1.736,0.748s0.835,1.157,0.835,1.977
			c0,1.437-0.85,2.667-2.549,3.691c-1.699,1.025-3.398,1.539-5.098,1.539c-4.087,0-6.13-2.476-6.13-7.428
			c0-2.694,0.725-6.232,2.175-10.612c-2.49-0.132-4.021-0.429-4.593-0.89c-0.57-0.462-0.856-1.234-0.856-2.318
			c0-0.894,0.297-1.618,0.89-2.176c0.594-0.556,1.358-0.834,2.297-0.834l3.428,0.307l0.527-4.395
			c0.088-0.761,0.436-1.417,1.043-1.966c0.608-0.55,1.33-0.824,2.164-0.824c1.743,0,2.615,1.216,2.615,3.647
			c0,0.425-0.154,1.561-0.461,3.406c0.424-0.045,0.769-0.088,1.032-0.133c0.82-0.102,1.919-0.043,3.296,0.176
			c1.377,0.221,2.065,1.106,2.065,2.659c0,0.952-0.318,1.71-0.956,2.274C1101.586,262.445,1100.828,262.728,1099.949,262.728z"/>
		<path fill="#D84F19" d="M1118.45,279.272c-2.886,1.318-5.047,1.979-6.481,1.979c-6.036,0-9.053-2.776-9.053-8.328
			c0-4.614,1.61-8.404,4.834-11.371c3.222-2.966,6.789-4.449,10.7-4.449c1.436,0,3.036,0.421,4.801,1.264
			c1.766,0.842,2.647,1.798,2.647,2.867c0,0.659-0.234,1.245-0.703,1.758c-0.498,1.172-0.919,2.871-1.263,5.098
			c-0.345,2.227-0.517,3.896-0.517,5.01c0,0.645,0.044,1.099,0.132,1.362l0.659,2.153c0.337,1.143,0.506,1.846,0.506,2.109
			c0,0.557-0.33,1.157-0.989,1.802s-1.472,0.967-2.438,0.967C1120.654,281.492,1119.71,280.752,1118.45,279.272z M1119.219,262.771
			c-0.439-0.278-0.856-0.417-1.252-0.417c-2.183,0-4.204,0.919-6.064,2.757c-1.86,1.839-2.791,4.187-2.791,7.042
			c0,2.594,1.136,3.89,3.406,3.89c1.846,0,3.566-0.601,5.164-1.802C1117.842,268.704,1118.354,264.881,1119.219,262.771z
			 M1118.362,253.938c-0.688,0-1.274-0.212-1.758-0.637s-0.726-0.924-0.726-1.494c0-0.732,0.466-1.473,1.396-2.22
			c0.931-0.747,2.311-1.956,4.142-3.626s3.369-2.504,4.615-2.504c0.717,0,1.303,0.219,1.758,0.658
			c0.453,0.439,0.681,0.945,0.681,1.517c0,0.864-0.483,1.626-1.45,2.285c-0.835,0.469-1.948,1.355-3.34,2.659
			c-1.143,1.069-2.117,1.896-2.922,2.482C1119.951,253.646,1119.153,253.938,1118.362,253.938z"/>
		<path fill="#D84F19" d="M1154.111,273.429c1.259,1.523,3.134,2.285,5.625,2.285c1.934,0,3.654-0.403,5.163-1.209
			c1.348-0.718,2.388-1.076,3.12-1.076c1.289,0,1.934,0.557,1.934,1.67c0,1.713-1.157,3.131-3.472,4.251
			c-2.314,1.121-4.849,1.681-7.603,1.681c-3.384,0-6.031-0.758-7.943-2.273c-1.911-1.517-2.867-3.556-2.867-6.119
			c0-3.589,1.278-7.076,3.834-10.459c2.557-3.385,5.943-5.076,10.162-5.076c2.77,0,4.926,0.458,6.472,1.373
			c1.545,0.916,2.317,2.216,2.317,3.9c0,1.597-0.611,2.94-1.834,4.032c-1.224,1.091-3.557,2.333-6.998,3.724L1154.111,273.429z
			 M1154.506,267.847l5.318-2.109c1.934-0.834,3.64-1.677,5.119-2.526c-0.864-0.542-2.088-0.813-3.67-0.813
			C1158.563,262.397,1156.309,264.215,1154.506,267.847z"/>
		<path fill="#D84F19" d="M1182.83,259.739c2.475-2.153,4.892-3.23,7.25-3.23c3.691,0,5.537,2.125,5.537,6.373
			c0,1.157-0.124,2.512-0.373,4.064l-0.264,1.582c-0.366,2.197-0.549,4.146-0.549,5.845c0,1.992-0.052,3.395-0.154,4.208
			c-0.103,0.813-0.479,1.523-1.132,2.131c-0.651,0.608-1.432,0.912-2.34,0.912c-1.743,0-2.614-0.843-2.614-2.527
			c0-3.705,0.109-6.427,0.329-8.162c0.22-1.736,0.586-3.666,1.099-5.79c0.205-0.82,0.308-1.398,0.308-1.735
			c0-0.732-0.249-1.1-0.747-1.1c-1.392,0-2.871,0.824-4.438,2.473c-1.567,1.647-2.75,3.332-3.549,5.054
			c-0.798,1.721-1.285,3.907-1.461,6.559c-0.059,1.274-0.176,2.157-0.352,2.647c-0.176,0.491-0.561,0.96-1.153,1.406
			c-0.594,0.447-1.308,0.67-2.143,0.67c-0.762,0-1.388-0.219-1.879-0.658c-0.49-0.439-0.736-1.004-0.736-1.692l0.176-2.373
			c0.117-1.611,0.586-4.175,1.406-7.69c0.791-3.252,1.245-5.5,1.363-6.746c0.116-1.376,0.237-2.431,0.362-3.164
			c0.124-0.731,0.52-1.373,1.187-1.922c0.666-0.55,1.446-0.824,2.34-0.824c1.904,0,2.746,1.143,2.527,3.428V259.739z"/>
		<path fill="#D84F19" d="M1216.096,272.835c0-3.354,1.487-6.885,4.461-10.591s6.057-5.56,9.25-5.56c1.627,0,3.417,0.443,5.373,1.33
			c1.955,0.886,2.934,1.908,2.934,3.064c0,0.777-0.326,1.491-0.979,2.143c-0.651,0.652-1.417,0.979-2.296,0.979
			c-0.659,0-1.362-0.33-2.109-0.989c-0.776-0.688-2.051-1.032-3.823-1.032c-1.172,0-2.633,1.208-4.384,3.625
			c-1.75,2.417-2.626,4.432-2.626,6.043c0,1.201,0.447,2.179,1.341,2.933c0.894,0.755,2.153,1.132,3.779,1.132
			c0.996,0,2.256-0.381,3.779-1.143c1.582-0.747,2.556-1.121,2.923-1.121c0.717,0,1.307,0.246,1.769,0.736
			c0.461,0.491,0.692,1.059,0.692,1.703c0,1.289-1.297,2.501-3.89,3.637c-2.593,1.135-4.636,1.703-6.13,1.703
			c-3.033,0-5.468-0.791-7.307-2.373C1217.016,277.472,1216.096,275.398,1216.096,272.835z"/>
		<path fill="#D84F19" d="M1254.307,279.272c-2.886,1.318-5.047,1.979-6.482,1.979c-6.035,0-9.053-2.776-9.053-8.328
			c0-4.614,1.611-8.404,4.834-11.371c3.223-2.966,6.79-4.449,10.701-4.449c1.436,0,3.036,0.421,4.801,1.264
			c1.766,0.842,2.648,1.798,2.648,2.867c0,0.659-0.235,1.245-0.703,1.758c-0.499,1.172-0.92,2.871-1.264,5.098
			c-0.345,2.227-0.517,3.896-0.517,5.01c0,0.645,0.044,1.099,0.132,1.362l0.659,2.153c0.337,1.143,0.505,1.846,0.505,2.109
			c0,0.557-0.329,1.157-0.988,1.802s-1.473,0.967-2.439,0.967C1256.511,281.492,1255.566,280.752,1254.307,279.272z
			 M1255.076,262.771c-0.439-0.278-0.857-0.417-1.253-0.417c-2.183,0-4.204,0.919-6.064,2.757c-1.86,1.839-2.79,4.187-2.79,7.042
			c0,2.594,1.135,3.89,3.405,3.89c1.846,0,3.566-0.601,5.163-1.802C1253.698,268.704,1254.211,264.881,1255.076,262.771z"/>
		<path fill="#D84F19" d="M1273.576,260.597c2.622-2.578,4.93-3.867,6.922-3.867c2.285,0,3.786,0.871,4.504,2.614
			c2.007-1.597,4.3-2.396,6.878-2.396c3.545,0,5.317,2.146,5.317,6.438c0,0.967-0.044,2.227-0.132,3.779
			c-0.015,0.264-0.059,2.476-0.132,6.636c-0.044,2.241-0.103,3.893-0.176,4.955c-0.073,1.062-0.477,1.856-1.209,2.384
			s-1.501,0.791-2.307,0.791c-0.938,0-1.604-0.249-2-0.747c-0.395-0.498-0.593-1.457-0.593-2.879l0.505-11.667
			c0-2.651-0.293-3.978-0.879-3.978c-0.293,0-1.153,0.37-2.581,1.11c-1.429,0.739-2.37,1.285-2.823,1.637
			c-0.235,1.26-0.403,3.662-0.506,7.207c-0.205,4.482-0.439,7.083-0.703,7.8c-0.264,0.718-0.707,1.293-1.329,1.726
			c-0.623,0.432-1.293,0.647-2.011,0.647c-0.791,0-1.432-0.237-1.923-0.714c-0.49-0.476-0.735-1.044-0.735-1.702l0.307-2.461
			c0.133-1.113,0.257-2.923,0.374-5.428c0.19-3.516,0.396-5.977,0.615-7.383c0.146-0.908,0.198-1.655,0.153-2.241
			c-1.948,0.996-4.064,2.776-6.35,5.339l-1.802,10.174c-0.088,0.762-0.469,1.373-1.143,1.835c-0.674,0.461-1.479,0.692-2.417,0.692
			c-1.567,0-2.352-0.916-2.352-2.747c0-0.645,0.081-1.442,0.242-2.396l1.252-8.129c0.322-2.051,0.55-3.75,0.682-5.098
			c0.19-2.109,0.688-3.783,1.494-5.021c0.806-1.237,1.685-1.856,2.637-1.856c0.776,0,1.432,0.274,1.967,0.824
			c0.534,0.549,0.802,1.168,0.802,1.856C1274.126,258.523,1273.942,259.278,1273.576,260.597z"/>
		<path fill="#D84F19" d="M1303.789,280.724c-0.806,0-1.449-0.231-1.934-0.692c-0.482-0.462-0.725-1.051-0.725-1.769l0.615-4.482
			c0.396-3.018,0.923-5.984,1.582-8.899c0.513-2.153,0.842-3.802,0.988-4.944c0.117-0.805,0.517-1.497,1.198-2.076
			c0.681-0.578,1.453-0.867,2.317-0.867c0.762,0,1.381,0.227,1.857,0.681c0.476,0.454,0.714,1.048,0.714,1.78
			c0,0.586-0.322,2.277-0.967,5.075s-1.132,5.501-1.461,8.108c-0.33,2.607-0.579,4.35-0.747,5.229
			c-0.169,0.879-0.579,1.575-1.23,2.088C1305.346,280.467,1304.609,280.724,1303.789,280.724z M1306.074,250.862
			c0-1.011,0.418-1.882,1.253-2.615c0.835-0.731,1.75-1.098,2.747-1.098c0.834,0,1.545,0.267,2.131,0.802
			c0.586,0.534,0.879,1.183,0.879,1.944c0,0.981-0.414,1.85-1.241,2.604c-0.828,0.755-1.762,1.132-2.802,1.132
			c-0.85,0-1.557-0.271-2.12-0.813C1306.356,252.276,1306.074,251.624,1306.074,250.862z"/>
		<path fill="#D84F19" d="M1321.586,259.739c2.476-2.153,4.893-3.23,7.252-3.23c3.691,0,5.537,2.125,5.537,6.373
			c0,1.157-0.125,2.512-0.374,4.064l-0.264,1.582c-0.366,2.197-0.55,4.146-0.55,5.845c0,1.992-0.051,3.395-0.153,4.208
			c-0.103,0.813-0.479,1.523-1.132,2.131c-0.651,0.608-1.432,0.912-2.34,0.912c-1.743,0-2.615-0.843-2.615-2.527
			c0-3.705,0.11-6.427,0.33-8.162c0.22-1.736,0.586-3.666,1.099-5.79c0.205-0.82,0.308-1.398,0.308-1.735
			c0-0.732-0.249-1.1-0.747-1.1c-1.392,0-2.871,0.824-4.438,2.473c-1.567,1.647-2.75,3.332-3.549,5.054
			c-0.798,1.721-1.285,3.907-1.461,6.559c-0.059,1.274-0.176,2.157-0.352,2.647c-0.176,0.491-0.561,0.96-1.153,1.406
			c-0.594,0.447-1.308,0.67-2.143,0.67c-0.762,0-1.388-0.219-1.879-0.658c-0.49-0.439-0.735-1.004-0.735-1.692l0.176-2.373
			c0.116-1.611,0.585-4.175,1.406-7.69c0.791-3.252,1.244-5.5,1.361-6.746c0.117-1.376,0.238-2.431,0.363-3.164
			c0.124-0.731,0.52-1.373,1.187-1.922c0.666-0.55,1.446-0.824,2.34-0.824c1.904,0,2.747,1.143,2.526,3.428V259.739z"/>
		<path fill="#D84F19" d="M1335.957,272.308c0-3.662,1.329-7.082,3.987-10.262c2.659-3.178,6.075-4.768,10.251-4.768
			c2.401,0,4.288,0.816,5.657,2.45c1.37,1.633,2.055,3.79,2.055,6.471c0,3.853-1.256,7.339-3.769,10.459
			c-2.512,3.12-5.644,4.681-9.393,4.681c-2.608,0-4.725-0.854-6.351-2.561C1336.77,277.072,1335.957,274.915,1335.957,272.308z
			 M1342.109,271.429c0,1.245,0.304,2.241,0.911,2.988c0.608,0.747,1.483,1.121,2.626,1.121c1.904,0,3.42-0.803,4.549-2.406
			c1.127-1.604,1.691-3.666,1.691-6.186c0-2.578-0.988-3.867-2.967-3.867c-1.934,0-3.552,0.934-4.855,2.802
			C1342.761,267.748,1342.109,269.598,1342.109,271.429z"/>
	</g>
	<text transform="matrix(1 0 0 1 954.834 702.875)" display="none"><tspan x="0" y="0" display="inline" fill="#D84F19" font-family="'ComicSansMS-BoldItalic'" font-size="45">La calificación a su respuesta </tspan><tspan x="0" y="54" display="inline" fill="#D84F19" font-family="'ComicSansMS-BoldItalic'" font-size="45">ya está en camino</tspan></text>
</g>
</svg>
